<?xml version="1.0" encoding="UTF-8"?>
<svg id="largeSub" xmlns="http://www.w3.org/2000/svg" version="1.1" viewBox="0 0 267.19 43.6">
  <!-- Generator: Adobe Illustrator 29.8.2, SVG Export Plug-In . SVG Version: 2.1.1 Build 3)  -->
  <g>
    <path d="M9.06,28.09h15.94-15.94Z" fill="none" stroke="#e9da68" stroke-miterlimit="10" stroke-width="2"/>
    <path d="M9.12,9.68c-.08,0,.02.21-.06.21C4.06,9.89,0,13.85,0,18.73s4.06,8.84,9.06,8.84c.09,0-.08,0,0,0l.06-17.9Z" fill="#e9da68"/>
    <path d="M9.1,43.12c.08,0,.17.01.25.01,5-.01,8.64-3.83,8.63-8.13s-3.67-7.43-8.67-7.42c-.09,0-.17,0-.25.01l.04,15.53Z" fill="#e9da68"/>
  </g>
  <path d="M254.06,15l-31,.19c3.91-2.41-1.4-9.47-6.06-9.32,0,0-43.81.13-43.81.13.44-2.64.11-6.02-3.06-5.98,0,0-48.75-.02-48.75-.02-3.15-.04-3.96,3.22-3.5,5.87h-43.81c-4.66-.16-7.97,6.79-4.06,9.19l-26.94-.12c-5.45,0-10.37,3.28-12.06,8.16-8.96-.73-8.95,12.83,0,12.1,1.69,4.88,6.68,8.41,12.12,8.41h211.88c16.85.22,15.93-28.82-.94-28.6Z" fill="#e9da68"/>
</svg>