<?xml version="1.0" encoding="UTF-8"?>
<svg id="largerSub" xmlns="http://www.w3.org/2000/svg" version="1.1" viewBox="0 0 725.03 236.56">
  <!-- Generator: Adobe Illustrator 29.8.2, SVG Export Plug-In . SVG Version: 2.1.1 Build 3)  -->
  <line x1="16.92" y1="161.83" x2="53.87" y2="161.83" fill="none" stroke="#e9da68" stroke-miterlimit="10" stroke-width="9"/>
  <path d="M16.92,103.04c-8.62,0-16.92,12.68-16.92,28.92s8.29,29.88,16.92,29.88v-58.79Z" fill="#e9da68"/>
  <path d="M16.92,220.87c8.62.03,16.77-13.77,16.83-30s-8.13-29.09-16.76-29.12l-.08,59.12Z" fill="#e9da68"/>
  <path d="M724.13,159.86c-11.03-67.33-147.45-53.98-227.21-67.99,1.63-11.11.35-34.86-14.03-36.25,0,0-39.64,0-39.64,0,2.18-5.37-2.5-11.66-8.33-11.54-27.46-2.14-29.3,10.04-27.92-22.38,0,0,15.8,6.37,15.8,6.37l.05-28.08-22.63,9.15c.13.1-.1,9.05,0,9.41,1.86,38.58-.84,22.27-39.14,25.52-5.82-.11-10.11,6.49-7.92,11.87-43.92,2.57-54.26-14.66-72.45,35.91-69.9,6.92-146.79,6.98-189.72,41.39-9.57,1.14-38.01-5.83-37.13,11.62,1.34,28.56-10.11,51.52,30.96,46.08,6.86,14.93,23.79,28.96,61.19,36.72,57.37,11.91,172.01,5.19,256.19,5.19,121.95,0,338.53,28.5,321.91-73.01Z" fill="#e9da68"/>
</svg>